<svg id="Layer_1" data-name="Layer 1" xmlns="http://www.w3.org/2000/svg" xmlns:xlink="http://www.w3.org/1999/xlink" viewBox="0 0 350.65 294.16"><defs><style>.cls-1{fill:url(#linear-gradient);}.cls-2{fill:url(#radial-gradient);}</style><linearGradient id="linear-gradient" x1="117.33" y1="52.18" x2="369.83" y2="-125.32" gradientTransform="matrix(1, 0, 0, -1, -56, 155.88)" gradientUnits="userSpaceOnUse"><stop offset="0" stop-color="#fff" stop-opacity="0.4"/><stop offset="0.22" stop-color="#fff"/><stop offset="0.58" stop-color="#fff" stop-opacity="0.44"/><stop offset="1" stop-color="#fff" stop-opacity="0"/></linearGradient><radialGradient id="radial-gradient" cx="-65.84" cy="422.45" r="5" gradientTransform="matrix(0, 16.19, 16.19, 0, -6557.7, 1135.76)" gradientUnits="userSpaceOnUse"><stop offset="0" stop-color="#fff"/><stop offset="1" stop-color="#353535"/></radialGradient></defs><path class="cls-1" d="M280.81,68.29a2.5,2.5,0,0,0-.86,4.93ZM51.64,151l1.68,1.85ZM94.87,120.7a2.51,2.51,0,0,0-1.89-3l-22-4.93a2.5,2.5,0,0,0-1.09,4.87L89.44,122l-4.39,19.51a2.5,2.5,0,0,0,4.88,1.1Zm236.05-15.59c9.89,21.21,1.87,49.06-20.58,77.35s-58.54,56.09-103.31,77l2.11,4.53c45.32-21.13,82.19-49.5,105.12-78.39s32.31-58.72,21.19-82.57ZM207,259.43c-44.78,20.88-89.43,30.65-125.37,29.67-36.11-1-62.59-12.75-72.48-34l-4.53,2.12c11.12,23.84,40.17,35.83,76.87,36.84,36.87,1,82.3-9,127.62-30.14ZM280,73.22c25.11,4.33,43.18,15.18,51,31.89l4.53-2.11c-8.77-18.8-28.72-30.23-54.64-34.71ZM9.18,255.14c-6.42-13.76-5.32-30.29,2.44-48s22.1-36.45,41.7-54.28L50,149.13C30,167.27,15.17,186.54,7,205.11s-9.61,36.67-2.39,52.15ZM53.32,152.83a293.67,293.67,0,0,1,40.44-30.57L91.09,118A299,299,0,0,0,50,149.13Z"/><path class="cls-2" d="M280.65,0a70,70,0,0,1-70,70,70,70,0,0,1,70,70,70,70,0,0,1,70-70A70,70,0,0,1,280.65,0Z"/></svg>